<mxfile host="app.diagrams.net" modified="2023-12-18T11:32:49.443Z" agent="Mozilla/5.0 (Windows NT 10.0; Win64; x64) AppleWebKit/537.36 (KHTML, like Gecko) Chrome/120.0.0.0 Safari/537.36" etag="CebJCGptlnaEm6EWQfm9" version="22.1.11" type="github">
  <diagram name="Page-1" id="cGRLRQYzg-NVSGvjSTRz">
    <mxGraphModel dx="1730" dy="1534" grid="1" gridSize="10" guides="1" tooltips="1" connect="1" arrows="1" fold="1" page="1" pageScale="1" pageWidth="850" pageHeight="1100" math="0" shadow="0">
      <root>
        <mxCell id="0" />
        <mxCell id="1" parent="0" />
        <mxCell id="0MmvQF1UDTD8Np_1qCj2-3" value="&lt;font style=&quot;font-size: 18px;&quot;&gt;Batches&lt;/font&gt;" style="whiteSpace=wrap;html=1;align=center;" vertex="1" parent="1">
          <mxGeometry x="100" y="310" width="100" height="40" as="geometry" />
        </mxCell>
        <mxCell id="0MmvQF1UDTD8Np_1qCj2-4" value="&lt;font style=&quot;font-size: 18px;&quot;&gt;Participants&lt;/font&gt;" style="whiteSpace=wrap;html=1;align=center;" vertex="1" parent="1">
          <mxGeometry x="630" y="60" width="100" height="40" as="geometry" />
        </mxCell>
        <mxCell id="0MmvQF1UDTD8Np_1qCj2-5" value="&lt;font style=&quot;font-size: 18px;&quot;&gt;Enrollments&lt;/font&gt;" style="whiteSpace=wrap;html=1;align=center;" vertex="1" parent="1">
          <mxGeometry x="210" y="20" width="100" height="40" as="geometry" />
        </mxCell>
        <mxCell id="0MmvQF1UDTD8Np_1qCj2-9" value="" style="edgeStyle=entityRelationEdgeStyle;fontSize=12;html=1;endArrow=ERoneToMany;rounded=0;exitX=1;exitY=0.5;exitDx=0;exitDy=0;entryX=0;entryY=1;entryDx=0;entryDy=0;" edge="1" parent="1" source="0MmvQF1UDTD8Np_1qCj2-3" target="0MmvQF1UDTD8Np_1qCj2-4">
          <mxGeometry width="100" height="100" relative="1" as="geometry">
            <mxPoint x="370" y="260" as="sourcePoint" />
            <mxPoint x="470" y="160" as="targetPoint" />
          </mxGeometry>
        </mxCell>
        <mxCell id="0MmvQF1UDTD8Np_1qCj2-10" value="" style="edgeStyle=entityRelationEdgeStyle;fontSize=12;html=1;endArrow=diamondThin;rounded=0;endFill=0;entryX=0;entryY=0.5;entryDx=0;entryDy=0;exitX=0.5;exitY=0;exitDx=0;exitDy=0;" edge="1" parent="1" source="0MmvQF1UDTD8Np_1qCj2-3" target="0MmvQF1UDTD8Np_1qCj2-5">
          <mxGeometry width="100" height="100" relative="1" as="geometry">
            <mxPoint x="270" y="240" as="sourcePoint" />
            <mxPoint x="265" y="50" as="targetPoint" />
          </mxGeometry>
        </mxCell>
        <mxCell id="0MmvQF1UDTD8Np_1qCj2-12" value="&lt;font style=&quot;font-size: 16px;&quot;&gt;1:N&lt;/font&gt;" style="shape=rhombus;perimeter=rhombusPerimeter;whiteSpace=wrap;html=1;align=center;rotation=-30;" vertex="1" parent="1">
          <mxGeometry x="368" y="170" width="115" height="70" as="geometry" />
        </mxCell>
        <mxCell id="0MmvQF1UDTD8Np_1qCj2-21" value="1:N" style="shape=rhombus;perimeter=rhombusPerimeter;whiteSpace=wrap;html=1;align=center;" vertex="1" parent="1">
          <mxGeometry x="120" y="130" width="120" height="60" as="geometry" />
        </mxCell>
        <mxCell id="0MmvQF1UDTD8Np_1qCj2-22" value="NAME" style="ellipse;whiteSpace=wrap;html=1;align=center;dashed=1;" vertex="1" parent="1">
          <mxGeometry x="660" y="190" width="100" height="40" as="geometry" />
        </mxCell>
        <mxCell id="0MmvQF1UDTD8Np_1qCj2-27" style="edgeStyle=orthogonalEdgeStyle;rounded=0;orthogonalLoop=1;jettySize=auto;html=1;entryX=0;entryY=1;entryDx=0;entryDy=0;" edge="1" parent="1" source="0MmvQF1UDTD8Np_1qCj2-26" target="0MmvQF1UDTD8Np_1qCj2-22">
          <mxGeometry relative="1" as="geometry" />
        </mxCell>
        <mxCell id="0MmvQF1UDTD8Np_1qCj2-26" value="FIRST NAME&amp;nbsp;" style="ellipse;whiteSpace=wrap;html=1;align=center;" vertex="1" parent="1">
          <mxGeometry x="550" y="240" width="100" height="40" as="geometry" />
        </mxCell>
        <mxCell id="0MmvQF1UDTD8Np_1qCj2-29" value="" style="edgeStyle=orthogonalEdgeStyle;rounded=0;orthogonalLoop=1;jettySize=auto;html=1;" edge="1" parent="1" source="0MmvQF1UDTD8Np_1qCj2-28" target="0MmvQF1UDTD8Np_1qCj2-22">
          <mxGeometry relative="1" as="geometry" />
        </mxCell>
        <mxCell id="0MmvQF1UDTD8Np_1qCj2-28" value="MIDDLE NAME" style="ellipse;whiteSpace=wrap;html=1;align=center;" vertex="1" parent="1">
          <mxGeometry x="650" y="290" width="100" height="40" as="geometry" />
        </mxCell>
        <mxCell id="0MmvQF1UDTD8Np_1qCj2-31" style="edgeStyle=orthogonalEdgeStyle;rounded=0;orthogonalLoop=1;jettySize=auto;html=1;entryX=1;entryY=1;entryDx=0;entryDy=0;" edge="1" parent="1" source="0MmvQF1UDTD8Np_1qCj2-30" target="0MmvQF1UDTD8Np_1qCj2-22">
          <mxGeometry relative="1" as="geometry" />
        </mxCell>
        <mxCell id="0MmvQF1UDTD8Np_1qCj2-30" value="LAST NAME" style="ellipse;whiteSpace=wrap;html=1;align=center;" vertex="1" parent="1">
          <mxGeometry x="760" y="250" width="100" height="40" as="geometry" />
        </mxCell>
        <mxCell id="0MmvQF1UDTD8Np_1qCj2-44" value="" style="endArrow=none;html=1;rounded=0;entryX=0.62;entryY=1;entryDx=0;entryDy=0;entryPerimeter=0;exitX=0.4;exitY=0.125;exitDx=0;exitDy=0;exitPerimeter=0;" edge="1" parent="1" source="0MmvQF1UDTD8Np_1qCj2-22" target="0MmvQF1UDTD8Np_1qCj2-4">
          <mxGeometry relative="1" as="geometry">
            <mxPoint x="710" y="180" as="sourcePoint" />
            <mxPoint x="760" y="140" as="targetPoint" />
          </mxGeometry>
        </mxCell>
        <mxCell id="0MmvQF1UDTD8Np_1qCj2-45" value="AGE" style="ellipse;whiteSpace=wrap;html=1;align=center;" vertex="1" parent="1">
          <mxGeometry x="770" y="130" width="100" height="40" as="geometry" />
        </mxCell>
        <mxCell id="0MmvQF1UDTD8Np_1qCj2-46" value="" style="endArrow=none;html=1;rounded=0;exitX=0.5;exitY=0;exitDx=0;exitDy=0;entryX=1;entryY=0.5;entryDx=0;entryDy=0;" edge="1" parent="1" source="0MmvQF1UDTD8Np_1qCj2-45" target="0MmvQF1UDTD8Np_1qCj2-4">
          <mxGeometry relative="1" as="geometry">
            <mxPoint x="720" y="50" as="sourcePoint" />
            <mxPoint x="880" y="50" as="targetPoint" />
          </mxGeometry>
        </mxCell>
        <mxCell id="0MmvQF1UDTD8Np_1qCj2-49" value="PARTICIPANT_ID" style="ellipse;whiteSpace=wrap;html=1;align=center;fontStyle=4;" vertex="1" parent="1">
          <mxGeometry x="720" y="-20" width="120" height="50" as="geometry" />
        </mxCell>
        <mxCell id="0MmvQF1UDTD8Np_1qCj2-50" value="" style="endArrow=none;html=1;rounded=0;exitX=0.57;exitY=-0.05;exitDx=0;exitDy=0;exitPerimeter=0;entryX=0.333;entryY=1.04;entryDx=0;entryDy=0;entryPerimeter=0;" edge="1" parent="1" source="0MmvQF1UDTD8Np_1qCj2-4" target="0MmvQF1UDTD8Np_1qCj2-49">
          <mxGeometry relative="1" as="geometry">
            <mxPoint x="690" y="39.5" as="sourcePoint" />
            <mxPoint x="850" y="39.5" as="targetPoint" />
          </mxGeometry>
        </mxCell>
        <mxCell id="0MmvQF1UDTD8Np_1qCj2-51" value="ENROLLMENT_DATE" style="ellipse;whiteSpace=wrap;html=1;align=center;" vertex="1" parent="1">
          <mxGeometry x="120" y="-105" width="140" height="50" as="geometry" />
        </mxCell>
        <mxCell id="0MmvQF1UDTD8Np_1qCj2-52" value="ENROLLMENT_ID" style="ellipse;whiteSpace=wrap;html=1;align=center;fontStyle=4;" vertex="1" parent="1">
          <mxGeometry x="300" y="-80" width="120" height="60" as="geometry" />
        </mxCell>
        <mxCell id="0MmvQF1UDTD8Np_1qCj2-53" value="" style="endArrow=none;html=1;rounded=0;entryX=0.35;entryY=0.983;entryDx=0;entryDy=0;entryPerimeter=0;exitX=1;exitY=0.25;exitDx=0;exitDy=0;" edge="1" parent="1" source="0MmvQF1UDTD8Np_1qCj2-5" target="0MmvQF1UDTD8Np_1qCj2-52">
          <mxGeometry relative="1" as="geometry">
            <mxPoint x="340" y="110" as="sourcePoint" />
            <mxPoint x="500" y="110" as="targetPoint" />
            <Array as="points">
              <mxPoint x="330" y="10" />
            </Array>
          </mxGeometry>
        </mxCell>
        <mxCell id="0MmvQF1UDTD8Np_1qCj2-54" value="" style="endArrow=none;html=1;rounded=0;entryX=0.5;entryY=0;entryDx=0;entryDy=0;exitX=0.271;exitY=0.98;exitDx=0;exitDy=0;exitPerimeter=0;" edge="1" parent="1" source="0MmvQF1UDTD8Np_1qCj2-51" target="0MmvQF1UDTD8Np_1qCj2-5">
          <mxGeometry relative="1" as="geometry">
            <mxPoint x="100" y="-10" as="sourcePoint" />
            <mxPoint x="260" y="-1" as="targetPoint" />
            <Array as="points">
              <mxPoint x="190" y="-1" />
            </Array>
          </mxGeometry>
        </mxCell>
        <mxCell id="0MmvQF1UDTD8Np_1qCj2-55" value="PARTICIPANT_ID" style="ellipse;whiteSpace=wrap;html=1;align=center;" vertex="1" parent="1">
          <mxGeometry x="-10" y="-20" width="100" height="40" as="geometry" />
        </mxCell>
        <mxCell id="0MmvQF1UDTD8Np_1qCj2-57" value="" style="endArrow=none;html=1;rounded=0;entryX=0.1;entryY=0;entryDx=0;entryDy=0;entryPerimeter=0;exitX=1;exitY=1;exitDx=0;exitDy=0;" edge="1" parent="1" source="0MmvQF1UDTD8Np_1qCj2-55" target="0MmvQF1UDTD8Np_1qCj2-5">
          <mxGeometry relative="1" as="geometry">
            <mxPoint x="50" y="19" as="sourcePoint" />
            <mxPoint x="210" y="19" as="targetPoint" />
          </mxGeometry>
        </mxCell>
        <mxCell id="0MmvQF1UDTD8Np_1qCj2-59" value="BATCH_ID" style="ellipse;whiteSpace=wrap;html=1;align=center;" vertex="1" parent="1">
          <mxGeometry y="-100" width="100" height="40" as="geometry" />
        </mxCell>
        <mxCell id="0MmvQF1UDTD8Np_1qCj2-60" value="" style="endArrow=none;html=1;rounded=0;entryX=0;entryY=0;entryDx=0;entryDy=0;exitX=0.42;exitY=1.075;exitDx=0;exitDy=0;exitPerimeter=0;" edge="1" parent="1" source="0MmvQF1UDTD8Np_1qCj2-59" target="0MmvQF1UDTD8Np_1qCj2-5">
          <mxGeometry relative="1" as="geometry">
            <mxPoint x="-20" y="-40" as="sourcePoint" />
            <mxPoint x="140" y="-40" as="targetPoint" />
          </mxGeometry>
        </mxCell>
        <mxCell id="0MmvQF1UDTD8Np_1qCj2-61" value="ADDRESS" style="ellipse;whiteSpace=wrap;html=1;align=center;dashed=1;" vertex="1" parent="1">
          <mxGeometry x="510" y="-40" width="100" height="40" as="geometry" />
        </mxCell>
        <mxCell id="0MmvQF1UDTD8Np_1qCj2-62" value="" style="endArrow=none;html=1;rounded=0;entryX=0;entryY=0.25;entryDx=0;entryDy=0;exitX=0.28;exitY=0.95;exitDx=0;exitDy=0;exitPerimeter=0;" edge="1" parent="1" source="0MmvQF1UDTD8Np_1qCj2-61" target="0MmvQF1UDTD8Np_1qCj2-4">
          <mxGeometry relative="1" as="geometry">
            <mxPoint x="340" y="110" as="sourcePoint" />
            <mxPoint x="500" y="110" as="targetPoint" />
            <Array as="points">
              <mxPoint x="600" y="40" />
            </Array>
          </mxGeometry>
        </mxCell>
        <mxCell id="0MmvQF1UDTD8Np_1qCj2-63" value="PHONE NO." style="ellipse;shape=doubleEllipse;margin=3;whiteSpace=wrap;html=1;align=center;" vertex="1" parent="1">
          <mxGeometry x="680" y="-95" width="100" height="40" as="geometry" />
        </mxCell>
        <mxCell id="0MmvQF1UDTD8Np_1qCj2-64" value="" style="endArrow=none;html=1;rounded=0;exitX=0.5;exitY=1;exitDx=0;exitDy=0;" edge="1" parent="1" source="0MmvQF1UDTD8Np_1qCj2-63" target="0MmvQF1UDTD8Np_1qCj2-4">
          <mxGeometry relative="1" as="geometry">
            <mxPoint x="340" y="110" as="sourcePoint" />
            <mxPoint x="500" y="110" as="targetPoint" />
          </mxGeometry>
        </mxCell>
        <mxCell id="0MmvQF1UDTD8Np_1qCj2-66" value="END_TIME" style="ellipse;whiteSpace=wrap;html=1;align=center;" vertex="1" parent="1">
          <mxGeometry x="-30" y="450" width="100" height="40" as="geometry" />
        </mxCell>
        <mxCell id="0MmvQF1UDTD8Np_1qCj2-67" value="START_TIIME" style="ellipse;whiteSpace=wrap;html=1;align=center;" vertex="1" parent="1">
          <mxGeometry x="80" y="460" width="100" height="40" as="geometry" />
        </mxCell>
        <mxCell id="0MmvQF1UDTD8Np_1qCj2-69" value="BATCH_NO" style="ellipse;whiteSpace=wrap;html=1;align=center;fontStyle=4;" vertex="1" parent="1">
          <mxGeometry x="190" y="460" width="100" height="40" as="geometry" />
        </mxCell>
        <mxCell id="0MmvQF1UDTD8Np_1qCj2-70" value="" style="endArrow=none;html=1;rounded=0;entryX=0.75;entryY=1;entryDx=0;entryDy=0;" edge="1" parent="1" source="0MmvQF1UDTD8Np_1qCj2-69" target="0MmvQF1UDTD8Np_1qCj2-3">
          <mxGeometry relative="1" as="geometry">
            <mxPoint x="340" y="310" as="sourcePoint" />
            <mxPoint x="500" y="310" as="targetPoint" />
          </mxGeometry>
        </mxCell>
        <mxCell id="0MmvQF1UDTD8Np_1qCj2-71" value="" style="endArrow=none;html=1;rounded=0;exitX=0.5;exitY=1;exitDx=0;exitDy=0;entryX=0.5;entryY=0;entryDx=0;entryDy=0;" edge="1" parent="1" source="0MmvQF1UDTD8Np_1qCj2-3" target="0MmvQF1UDTD8Np_1qCj2-67">
          <mxGeometry relative="1" as="geometry">
            <mxPoint x="340" y="310" as="sourcePoint" />
            <mxPoint x="500" y="310" as="targetPoint" />
          </mxGeometry>
        </mxCell>
        <mxCell id="0MmvQF1UDTD8Np_1qCj2-72" value="" style="endArrow=none;html=1;rounded=0;exitX=0;exitY=1;exitDx=0;exitDy=0;entryX=0.5;entryY=0;entryDx=0;entryDy=0;" edge="1" parent="1" source="0MmvQF1UDTD8Np_1qCj2-3" target="0MmvQF1UDTD8Np_1qCj2-66">
          <mxGeometry relative="1" as="geometry">
            <mxPoint x="340" y="310" as="sourcePoint" />
            <mxPoint x="500" y="310" as="targetPoint" />
          </mxGeometry>
        </mxCell>
        <mxCell id="0MmvQF1UDTD8Np_1qCj2-73" value="ENROLLMENT_DATE" style="ellipse;whiteSpace=wrap;html=1;align=center;" vertex="1" parent="1">
          <mxGeometry x="530" y="-120" width="140" height="50" as="geometry" />
        </mxCell>
        <mxCell id="0MmvQF1UDTD8Np_1qCj2-74" value="" style="endArrow=none;html=1;rounded=0;entryX=0.386;entryY=0.98;entryDx=0;entryDy=0;entryPerimeter=0;" edge="1" parent="1" source="0MmvQF1UDTD8Np_1qCj2-4" target="0MmvQF1UDTD8Np_1qCj2-73">
          <mxGeometry relative="1" as="geometry">
            <mxPoint x="340" y="100" as="sourcePoint" />
            <mxPoint x="500" y="100" as="targetPoint" />
          </mxGeometry>
        </mxCell>
      </root>
    </mxGraphModel>
  </diagram>
</mxfile>
